<?xml version="1.0" encoding="utf-8"?>
<!-- Generator: Adobe Illustrator 19.1.0, SVG Export Plug-In . SVG Version: 6.00 Build 0)  -->
<svg version="1.1" xmlns="http://www.w3.org/2000/svg" xmlns:xlink="http://www.w3.org/1999/xlink" x="0px" y="0px"
	 viewBox="0 0 80 77.8" style="enable-background:new 0 0 80 77.8;" xml:space="preserve">
<style type="text/css">
	.st0{opacity:0.2;fill:#D7CFC1;}
	.st1{fill:#333333;}
	.st2{fill:#FFFFFF;}
	.st3{fill:#D91803;}
	.st4{opacity:0.5;fill:#D91803;}
	.st5{opacity:0.5;fill:#9A0B28;}
	.st6{opacity:0.5;fill:#F53817;}
	.st7{fill:#F53817;}
	.st8{fill:#4D4D4D;}
	.st9{fill:#CC003D;}
	.st10{fill:#F2F2F2;}
	.st11{fill:#B3B3B3;}
	.st12{fill:#CCCCCC;}
	.st13{fill:#E6E6E6;}
	.st14{fill:none;stroke:#808080;stroke-linejoin:bevel;stroke-miterlimit:10;}
	.st15{fill:none;stroke:#FFFFFF;stroke-width:0.75;stroke-miterlimit:10;}
	.st16{fill:none;stroke:#FFFFFF;stroke-width:0.5;stroke-miterlimit:10;}
	.st17{fill:none;stroke:#F53817;stroke-miterlimit:10;}
	.st18{fill:none;stroke:#F11F06;stroke-width:3;stroke-miterlimit:10;}
	.st19{fill:none;stroke:#CC003D;stroke-width:4;stroke-miterlimit:10;}
	.st20{fill:none;stroke:#9A0B28;stroke-width:8;stroke-miterlimit:10;}
	.st21{fill:none;stroke:#F53817;stroke-width:2;stroke-miterlimit:10;}
	.st22{fill:none;stroke:#000000;stroke-width:2;stroke-miterlimit:10;}
	.st23{fill:#FCFBFA;stroke:#FFFFFF;stroke-miterlimit:10;}
	.st24{fill:#F9F1EA;stroke:#FFFFFF;stroke-miterlimit:10;}
	.st25{fill:#FCF9F7;stroke:#FFFFFF;stroke-miterlimit:10;}
	.st26{fill:#D7CFC1;}
	.st27{fill:#E5DCCF;}
	.st28{fill:#1C1A18;}
	.st29{fill:#2D2926;}
	.st30{fill:#F11F06;}
	.st31{fill:#9A0B28;}
	.st32{fill:#B50630;}
	.st33{opacity:0.81;fill:#FFFFFF;}
	.st34{opacity:0.45;fill:#FFFFFF;}
	.st35{opacity:0.25;fill:#FFFFFF;}
	.st36{fill:none;stroke:#D91803;stroke-width:2;stroke-miterlimit:10;}
	.st37{fill:none;stroke:#000000;stroke-width:2;stroke-miterlimit:10;stroke-dasharray:2,2;}
	.st38{opacity:0.7;fill:#D7CFC1;}
	.st39{opacity:0.4;fill:#FFFFFF;}
	.st40{opacity:0.5;fill:#FFFFFF;}
	.st41{opacity:0.59;fill:#2D2926;}
	.st42{fill:#1D1D1B;}
	.st43{fill:none;stroke:#FFFFFF;stroke-width:2;stroke-miterlimit:10;}
	.st44{fill:none;stroke:#FFFFFF;stroke-width:2;stroke-miterlimit:10;stroke-dasharray:2,2;}
	.st45{fill:none;stroke:#CC003D;stroke-width:3;stroke-linecap:square;stroke-miterlimit:10;}
	.st46{fill:none;stroke:#000000;stroke-width:3;stroke-linecap:round;stroke-linejoin:round;stroke-miterlimit:10;}
	.st47{fill:none;stroke:#000000;stroke-width:3;stroke-miterlimit:10;}
	.st48{fill:none;stroke:#FFFFFF;stroke-width:0.5;stroke-linecap:round;stroke-linejoin:round;stroke-miterlimit:10;}
	.st49{display:none;}
	
		.st50{display:inline;fill:none;stroke:#FFFFFF;stroke-width:0.5;stroke-linecap:round;stroke-linejoin:round;stroke-miterlimit:10;}
	.st51{display:inline;fill:#FFFFFF;}
	.st52{opacity:0.75;fill:#F2F2F2;}
	.st53{opacity:0.75;fill:#CCCCCC;}
	.st54{opacity:0.75;fill:#999999;}
	.st55{fill:none;stroke:#FFFFFF;stroke-linejoin:bevel;stroke-miterlimit:10;}
</style>
<g id="CARTO">
</g>
<g id="VISTA_2_IMAGEN">
</g>
<g id="PALETA">
</g>
<g id="SCROLL_2">
</g>
<g id="SCROLL_1">
</g>
<g id="HOME">
</g>
<g id="ÃCONOS">
</g>
<g id="PRE_HOME">
</g>
<g id="mobile">
	<path class="st2" d="M47.7,71.1l0.7,0.3l3.6-6.1l-2-13.6l4.9-3.7l-2.8-25l0-0.2l-10.6-1.2c0.7-0.5,1.2-1.1,1.7-1.8
		c1.4-1.9,2-4.1,1.6-6.4c-0.3-2.3-1.5-4.3-3.4-5.7s-4.1-2-6.4-1.6c-2.3,0.3-4.3,1.5-5.7,3.4c-1.4,1.9-2,4.1-1.6,6.4
		c0.3,2.3,1.5,4.3,3.4,5.7c0.4,0.3,0.8,0.5,1.2,0.7L25,24.2l5.6,24l1.2,0.1l5.5,19.1l0,0.1l4.6,1.9l0.4,0.1l-0.1-0.4L40,57.6l3,11.5
		l0,0.1l4.5,1.7L47.7,71.1z M54.4,47.7l-4.7,3.5l0,0L47.1,26l4.6-2.6L54.4,47.7z M49.2,50.9l-4.3-1.7l-3.7-23.5l1.3,0.1l4.1,0.3
		L49.2,50.9z M31.4,21.2c-1.8-1.3-2.9-3.2-3.2-5.4s0.2-4.3,1.5-6.1C31.1,8,33,6.9,35.2,6.5c0.4-0.1,0.8-0.1,1.2-0.1
		c1.7,0,3.4,0.6,4.9,1.6c1.8,1.3,2.9,3.2,3.2,5.4s-0.2,4.3-1.5,6.1s-3.2,2.9-5.4,3.2C35.4,23,33.2,22.5,31.4,21.2z M32.9,22.7l0-0.1
		c1.5,0.6,3.1,0.9,4.7,0.6c1.3-0.2,2.6-0.7,3.6-1.4l0,0.2l9.9,1.1l-4.3,2.5l-4.3-0.3l-15.6-1.1L32.9,22.7z M31.1,47.8l-5.4-23.1
		l3.5,0.2l2.6,22.9L31.1,47.8z M43.5,68.9l-5.1-19.6l-0.5,0.1l3.9,19.4l-4-1.6l-5.5-19.1l-2.6-23.1l11,0.7l0,0l3.7,23.8l3.1,21
		L43.5,68.9z M51.5,65.1l-3.3,5.6L48,70.6l-3-20.8l4.6,1.8L51.5,65.1z"/>
</g>
</svg>
